<?xml version="1.0" encoding="utf-8"?>
<!-- Generator: Adobe Illustrator 27.3.1, SVG Export Plug-In . SVG Version: 6.00 Build 0)  -->
<svg version="1.1" id="Layer_1" xmlns="http://www.w3.org/2000/svg" xmlns:xlink="http://www.w3.org/1999/xlink" x="0px" y="0px"
	 viewBox="0 0 1080 1080" style="enable-background:new 0 0 1080 1080;" xml:space="preserve">
<style type="text/css">
	.st0{fill:#999999 ;stroke:#000000;stroke-miterlimit:10;}
</style>
<g>
	<path class="st0" d="M800.75,416.49c5.82,52.73-8.35,164.55-236.56,154.91c-249.95,3.61-264.82,94.23-255.76,140.91
		c12.27,16.51,26.26,31.65,41.71,45.18c-1.01-3.14-1.79-6.46-2.3-9.98c-8.57-58.86,191.08-96.3,191.08-96.3
		c-165.58,71.66-113.03,145.51-101.69,158.76c31.96,12.21,66.64,18.91,102.89,18.91c159.34,0,288.51-129.17,288.51-288.51
		C828.64,496.03,818.62,454.03,800.75,416.49z"/>
	<path class="st0" d="M528.36,536.98c285.94-4.13,264.22-122.13,251-157.94c-0.94-1.4-1.91-2.77-2.88-4.15
		c-39.65,53.54-225.14,86.47-225.14,86.47c171.44-70.23,150.46-142.29,131.97-171.52c-42.19-24.16-91.07-37.98-143.18-37.98
		c-159.34,0-288.51,129.17-288.51,288.51c0,53.31,14.47,103.23,39.68,146.07C287.16,631.86,307.73,527.67,528.36,536.98z"/>
</g>
</svg>
